<svg xmlns="http://www.w3.org/2000/svg" xmlns:xlink="http://www.w3.org/1999/xlink" width="271" zoomAndPan="magnify" viewBox="0 0 203.25 59.249999" height="79" preserveAspectRatio="xMidYMid meet" version="1.0"><defs><g/><clipPath id="45260b7069"><path d="M 0.898438 0 L 201.609375 0 L 201.609375 58.507812 L 0.898438 58.507812 Z M 0.898438 0 " clip-rule="nonzero"/></clipPath><clipPath id="cbcac42b28"><path d="M 0.898438 13.671875 L 30.832031 13.671875 L 30.832031 42.335938 L 0.898438 42.335938 Z M 0.898438 13.671875 " clip-rule="nonzero"/></clipPath><clipPath id="ec6f201496"><path d="M 0.894531 42.335938 L 0.894531 13.671875 L 30.832031 13.671875 Z M 0.894531 42.335938 " clip-rule="nonzero"/></clipPath><clipPath id="4015fbfcf8"><path d="M 0.898438 0.671875 L 30.832031 0.671875 L 30.832031 29.335938 L 0.898438 29.335938 Z M 0.898438 0.671875 " clip-rule="nonzero"/></clipPath><clipPath id="c197ce6165"><path d="M 0.894531 29.335938 L 0.894531 0.671875 L 30.832031 0.671875 Z M 0.894531 29.335938 " clip-rule="nonzero"/></clipPath><clipPath id="4aee35e511"><rect x="0" width="31" y="0" height="30"/></clipPath><clipPath id="a41ec83906"><path d="M 15.867188 27.996094 L 32.703125 27.996094 L 32.703125 44.832031 L 15.867188 44.832031 Z M 15.867188 27.996094 " clip-rule="nonzero"/></clipPath><clipPath id="5c2d3a57cb"><path d="M 0.867188 0.996094 L 17.703125 0.996094 L 17.703125 17.832031 L 0.867188 17.832031 Z M 0.867188 0.996094 " clip-rule="nonzero"/></clipPath><clipPath id="17ac29c380"><rect x="0" width="18" y="0" height="18"/></clipPath></defs><g clip-path="url(#45260b7069)"><path fill="#ffffff" d="M 0.898438 0 L 201.609375 0 L 201.609375 58.507812 L 0.898438 58.507812 Z M 0.898438 0 " fill-opacity="1" fill-rule="nonzero"/></g><g clip-path="url(#cbcac42b28)"><g clip-path="url(#ec6f201496)"><g transform="matrix(1, 0, 0, 1, 0.000000000000000111, 13)"><g clip-path="url(#4aee35e511)"><g clip-path="url(#4015fbfcf8)"><g clip-path="url(#c197ce6165)"><path fill="#ffffff" d="M 30.832031 0.671875 L 30.832031 29.335938 L 0.9375 29.335938 L 0.9375 0.671875 Z M 30.832031 0.671875 " fill-opacity="1" fill-rule="nonzero"/></g></g></g></g></g></g><g clip-path="url(#a41ec83906)"><g transform="matrix(1, 0, 0, 1, 15, 27)"><g clip-path="url(#17ac29c380)"><g clip-path="url(#5c2d3a57cb)"><path fill="#ffffff" d="M 0.867188 0.996094 L 17.703125 0.996094 L 17.703125 17.832031 L 0.867188 17.832031 Z M 0.867188 0.996094 " fill-opacity="1" fill-rule="nonzero"/></g></g></g></g><g fill="#ffffff" fill-opacity="1"><g transform="translate(41.668517, 25.544195)"><g><path d="M 6 0.265625 C 5.070312 0.265625 4.144531 0.09375 3.21875 -0.25 C 2.300781 -0.59375 1.484375 -1.101562 0.765625 -1.78125 L 2.59375 -3.984375 C 3.101562 -3.546875 3.664062 -3.1875 4.28125 -2.90625 C 4.894531 -2.632812 5.5 -2.5 6.09375 -2.5 C 6.757812 -2.5 7.253906 -2.625 7.578125 -2.875 C 7.910156 -3.125 8.078125 -3.457031 8.078125 -3.875 C 8.078125 -4.09375 8.03125 -4.28125 7.9375 -4.4375 C 7.84375 -4.59375 7.703125 -4.734375 7.515625 -4.859375 C 7.335938 -4.984375 7.117188 -5.097656 6.859375 -5.203125 C 6.609375 -5.316406 6.332031 -5.441406 6.03125 -5.578125 L 4.171875 -6.359375 C 3.816406 -6.503906 3.46875 -6.691406 3.125 -6.921875 C 2.78125 -7.148438 2.472656 -7.421875 2.203125 -7.734375 C 1.941406 -8.046875 1.726562 -8.410156 1.5625 -8.828125 C 1.40625 -9.242188 1.328125 -9.710938 1.328125 -10.234375 C 1.328125 -10.804688 1.445312 -11.347656 1.6875 -11.859375 C 1.9375 -12.378906 2.285156 -12.832031 2.734375 -13.21875 C 3.191406 -13.601562 3.726562 -13.90625 4.34375 -14.125 C 4.957031 -14.34375 5.632812 -14.453125 6.375 -14.453125 C 7.207031 -14.453125 8.023438 -14.289062 8.828125 -13.96875 C 9.628906 -13.65625 10.335938 -13.191406 10.953125 -12.578125 L 9.3125 -10.5625 C 8.851562 -10.914062 8.390625 -11.191406 7.921875 -11.390625 C 7.453125 -11.585938 6.9375 -11.6875 6.375 -11.6875 C 5.820312 -11.6875 5.382812 -11.570312 5.0625 -11.34375 C 4.738281 -11.125 4.578125 -10.8125 4.578125 -10.40625 C 4.578125 -10.1875 4.628906 -10 4.734375 -9.84375 C 4.835938 -9.695312 4.988281 -9.5625 5.1875 -9.4375 C 5.382812 -9.3125 5.613281 -9.191406 5.875 -9.078125 C 6.132812 -8.972656 6.414062 -8.859375 6.71875 -8.734375 L 8.546875 -7.984375 C 9.421875 -7.640625 10.109375 -7.160156 10.609375 -6.546875 C 11.109375 -5.941406 11.359375 -5.140625 11.359375 -4.140625 C 11.359375 -3.546875 11.238281 -2.984375 11 -2.453125 C 10.757812 -1.921875 10.410156 -1.453125 9.953125 -1.046875 C 9.492188 -0.648438 8.929688 -0.332031 8.265625 -0.09375 C 7.597656 0.144531 6.84375 0.265625 6 0.265625 Z M 6 0.265625 "/></g></g></g><g fill="#ffffff" fill-opacity="1"><g transform="translate(53.764811, 25.544195)"><g><path d="M 1.671875 0 L 1.671875 -14.1875 L 10.625 -14.1875 L 10.625 -11.5 L 4.875 -11.5 L 4.875 -8.203125 L 9.796875 -8.203125 L 9.796875 -5.5 L 4.875 -5.5 L 4.875 0 Z M 1.671875 0 "/></g></g></g><g fill="#ffffff" fill-opacity="1"><g transform="translate(65.164916, 25.544195)"><g><path d="M 6 0.265625 C 5.070312 0.265625 4.144531 0.09375 3.21875 -0.25 C 2.300781 -0.59375 1.484375 -1.101562 0.765625 -1.78125 L 2.59375 -3.984375 C 3.101562 -3.546875 3.664062 -3.1875 4.28125 -2.90625 C 4.894531 -2.632812 5.5 -2.5 6.09375 -2.5 C 6.757812 -2.5 7.253906 -2.625 7.578125 -2.875 C 7.910156 -3.125 8.078125 -3.457031 8.078125 -3.875 C 8.078125 -4.09375 8.03125 -4.28125 7.9375 -4.4375 C 7.84375 -4.59375 7.703125 -4.734375 7.515625 -4.859375 C 7.335938 -4.984375 7.117188 -5.097656 6.859375 -5.203125 C 6.609375 -5.316406 6.332031 -5.441406 6.03125 -5.578125 L 4.171875 -6.359375 C 3.816406 -6.503906 3.46875 -6.691406 3.125 -6.921875 C 2.78125 -7.148438 2.472656 -7.421875 2.203125 -7.734375 C 1.941406 -8.046875 1.726562 -8.410156 1.5625 -8.828125 C 1.40625 -9.242188 1.328125 -9.710938 1.328125 -10.234375 C 1.328125 -10.804688 1.445312 -11.347656 1.6875 -11.859375 C 1.9375 -12.378906 2.285156 -12.832031 2.734375 -13.21875 C 3.191406 -13.601562 3.726562 -13.90625 4.34375 -14.125 C 4.957031 -14.34375 5.632812 -14.453125 6.375 -14.453125 C 7.207031 -14.453125 8.023438 -14.289062 8.828125 -13.96875 C 9.628906 -13.65625 10.335938 -13.191406 10.953125 -12.578125 L 9.3125 -10.5625 C 8.851562 -10.914062 8.390625 -11.191406 7.921875 -11.390625 C 7.453125 -11.585938 6.9375 -11.6875 6.375 -11.6875 C 5.820312 -11.6875 5.382812 -11.570312 5.0625 -11.34375 C 4.738281 -11.125 4.578125 -10.8125 4.578125 -10.40625 C 4.578125 -10.1875 4.628906 -10 4.734375 -9.84375 C 4.835938 -9.695312 4.988281 -9.5625 5.1875 -9.4375 C 5.382812 -9.3125 5.613281 -9.191406 5.875 -9.078125 C 6.132812 -8.972656 6.414062 -8.859375 6.71875 -8.734375 L 8.546875 -7.984375 C 9.421875 -7.640625 10.109375 -7.160156 10.609375 -6.546875 C 11.109375 -5.941406 11.359375 -5.140625 11.359375 -4.140625 C 11.359375 -3.546875 11.238281 -2.984375 11 -2.453125 C 10.757812 -1.921875 10.410156 -1.453125 9.953125 -1.046875 C 9.492188 -0.648438 8.929688 -0.332031 8.265625 -0.09375 C 7.597656 0.144531 6.84375 0.265625 6 0.265625 Z M 6 0.265625 "/></g></g></g><g fill="#ffffff" fill-opacity="1"><g transform="translate(41.668517, 47.022318)"><g><path d="M 1.671875 0 L 1.671875 -14.1875 L 10.5625 -14.1875 L 10.5625 -11.5 L 4.875 -11.5 L 4.875 -8.640625 L 9.703125 -8.640625 L 9.703125 -5.96875 L 4.875 -5.96875 L 4.875 -2.703125 L 10.78125 -2.703125 L 10.78125 0 Z M 1.671875 0 "/></g></g></g><g fill="#ffffff" fill-opacity="1"><g transform="translate(53.590763, 47.022318)"><g><path d="M 1.671875 0 L 1.671875 -14.1875 L 5.6875 -14.1875 C 6.769531 -14.1875 7.742188 -14.046875 8.609375 -13.765625 C 9.484375 -13.492188 10.234375 -13.070312 10.859375 -12.5 C 11.484375 -11.925781 11.960938 -11.195312 12.296875 -10.3125 C 12.628906 -9.425781 12.796875 -8.375 12.796875 -7.15625 C 12.796875 -5.9375 12.628906 -4.878906 12.296875 -3.984375 C 11.960938 -3.085938 11.488281 -2.34375 10.875 -1.75 C 10.269531 -1.164062 9.539062 -0.726562 8.6875 -0.4375 C 7.84375 -0.144531 6.898438 0 5.859375 0 Z M 4.875 -2.59375 L 5.484375 -2.59375 C 6.097656 -2.59375 6.648438 -2.671875 7.140625 -2.828125 C 7.628906 -2.984375 8.046875 -3.238281 8.390625 -3.59375 C 8.742188 -3.957031 9.019531 -4.425781 9.21875 -5 C 9.414062 -5.582031 9.515625 -6.300781 9.515625 -7.15625 C 9.515625 -8 9.414062 -8.707031 9.21875 -9.28125 C 9.019531 -9.851562 8.742188 -10.3125 8.390625 -10.65625 C 8.046875 -11 7.628906 -11.238281 7.140625 -11.375 C 6.648438 -11.519531 6.097656 -11.59375 5.484375 -11.59375 L 4.875 -11.59375 Z M 4.875 -2.59375 "/></g></g></g><g fill="#ffffff" fill-opacity="1"><g transform="translate(67.405765, 47.022318)"><g><path d="M 7.265625 0.265625 C 5.421875 0.265625 4.015625 -0.273438 3.046875 -1.359375 C 2.078125 -2.453125 1.59375 -4.191406 1.59375 -6.578125 L 1.59375 -14.1875 L 4.8125 -14.1875 L 4.8125 -6.25 C 4.8125 -4.851562 5.019531 -3.878906 5.4375 -3.328125 C 5.863281 -2.773438 6.472656 -2.5 7.265625 -2.5 C 8.066406 -2.5 8.679688 -2.773438 9.109375 -3.328125 C 9.546875 -3.878906 9.765625 -4.851562 9.765625 -6.25 L 9.765625 -14.1875 L 12.859375 -14.1875 L 12.859375 -6.578125 C 12.859375 -4.191406 12.382812 -2.453125 11.4375 -1.359375 C 10.488281 -0.273438 9.097656 0.265625 7.265625 0.265625 Z M 7.265625 0.265625 "/></g></g></g><g fill="#ffffff" fill-opacity="1"><g transform="translate(81.873447, 47.022318)"><g><path d="M 7.59375 0.265625 C 6.695312 0.265625 5.847656 0.109375 5.046875 -0.203125 C 4.253906 -0.515625 3.554688 -0.972656 2.953125 -1.578125 C 2.347656 -2.191406 1.867188 -2.953125 1.515625 -3.859375 C 1.171875 -4.765625 1 -5.816406 1 -7.015625 C 1 -8.179688 1.179688 -9.222656 1.546875 -10.140625 C 1.910156 -11.066406 2.394531 -11.847656 3 -12.484375 C 3.613281 -13.128906 4.328125 -13.617188 5.140625 -13.953125 C 5.953125 -14.285156 6.804688 -14.453125 7.703125 -14.453125 C 8.617188 -14.453125 9.4375 -14.265625 10.15625 -13.890625 C 10.882812 -13.523438 11.488281 -13.097656 11.96875 -12.609375 L 10.265625 -10.5625 C 9.910156 -10.894531 9.53125 -11.164062 9.125 -11.375 C 8.726562 -11.582031 8.273438 -11.6875 7.765625 -11.6875 C 7.285156 -11.6875 6.832031 -11.582031 6.40625 -11.375 C 5.976562 -11.164062 5.609375 -10.863281 5.296875 -10.46875 C 4.984375 -10.070312 4.734375 -9.59375 4.546875 -9.03125 C 4.367188 -8.46875 4.28125 -7.832031 4.28125 -7.125 C 4.28125 -5.65625 4.59375 -4.515625 5.21875 -3.703125 C 5.84375 -2.898438 6.679688 -2.5 7.734375 -2.5 C 8.304688 -2.5 8.820312 -2.625 9.28125 -2.875 C 9.738281 -3.132812 10.140625 -3.453125 10.484375 -3.828125 L 12.1875 -1.828125 C 11 -0.429688 9.46875 0.265625 7.59375 0.265625 Z M 7.59375 0.265625 "/></g></g></g><g fill="#ffffff" fill-opacity="1"><g transform="translate(94.535392, 47.022318)"><g><path d="M 7.4375 0.265625 C 6.476562 0.265625 5.601562 0.09375 4.8125 -0.25 C 4.03125 -0.59375 3.351562 -1.082031 2.78125 -1.71875 C 2.21875 -2.351562 1.78125 -3.128906 1.46875 -4.046875 C 1.15625 -4.960938 1 -6 1 -7.15625 C 1 -8.320312 1.15625 -9.359375 1.46875 -10.265625 C 1.78125 -11.171875 2.21875 -11.929688 2.78125 -12.546875 C 3.351562 -13.160156 4.03125 -13.628906 4.8125 -13.953125 C 5.601562 -14.285156 6.476562 -14.453125 7.4375 -14.453125 C 8.394531 -14.453125 9.269531 -14.285156 10.0625 -13.953125 C 10.851562 -13.628906 11.53125 -13.15625 12.09375 -12.53125 C 12.664062 -11.90625 13.109375 -11.140625 13.421875 -10.234375 C 13.734375 -9.328125 13.890625 -8.300781 13.890625 -7.15625 C 13.890625 -6 13.734375 -4.960938 13.421875 -4.046875 C 13.109375 -3.128906 12.664062 -2.351562 12.09375 -1.71875 C 11.53125 -1.082031 10.851562 -0.59375 10.0625 -0.25 C 9.269531 0.09375 8.394531 0.265625 7.4375 0.265625 Z M 7.4375 -2.5 C 8.414062 -2.5 9.1875 -2.914062 9.75 -3.75 C 10.3125 -4.582031 10.59375 -5.71875 10.59375 -7.15625 C 10.59375 -8.582031 10.3125 -9.691406 9.75 -10.484375 C 9.1875 -11.285156 8.414062 -11.6875 7.4375 -11.6875 C 6.46875 -11.6875 5.695312 -11.285156 5.125 -10.484375 C 4.5625 -9.691406 4.28125 -8.582031 4.28125 -7.15625 C 4.28125 -5.71875 4.5625 -4.582031 5.125 -3.75 C 5.695312 -2.914062 6.46875 -2.5 7.4375 -2.5 Z M 7.4375 -2.5 "/></g></g></g><g fill="#ffffff" fill-opacity="1"><g transform="translate(109.416443, 47.022318)"><g><path d="M 1.671875 0 L 1.671875 -14.1875 L 4.96875 -14.1875 L 8.65625 -7.140625 L 10.0625 -4 L 10.140625 -4 C 10.066406 -4.757812 9.984375 -5.601562 9.890625 -6.53125 C 9.796875 -7.457031 9.75 -8.34375 9.75 -9.1875 L 9.75 -14.1875 L 12.796875 -14.1875 L 12.796875 0 L 9.515625 0 L 5.8125 -7.078125 L 4.421875 -10.171875 L 4.328125 -10.171875 C 4.398438 -9.378906 4.484375 -8.535156 4.578125 -7.640625 C 4.671875 -6.742188 4.71875 -5.875 4.71875 -5.03125 L 4.71875 0 Z M 1.671875 0 "/></g></g></g><g fill="#ffffff" fill-opacity="1"><g transform="translate(123.884125, 47.022318)"><g><path d="M 1.671875 0 L 1.671875 -14.1875 L 4.96875 -14.1875 L 8.65625 -7.140625 L 10.0625 -4 L 10.140625 -4 C 10.066406 -4.757812 9.984375 -5.601562 9.890625 -6.53125 C 9.796875 -7.457031 9.75 -8.34375 9.75 -9.1875 L 9.75 -14.1875 L 12.796875 -14.1875 L 12.796875 0 L 9.515625 0 L 5.8125 -7.078125 L 4.421875 -10.171875 L 4.328125 -10.171875 C 4.398438 -9.378906 4.484375 -8.535156 4.578125 -7.640625 C 4.671875 -6.742188 4.71875 -5.875 4.71875 -5.03125 L 4.71875 0 Z M 1.671875 0 "/></g></g></g><g fill="#ffffff" fill-opacity="1"><g transform="translate(138.351807, 47.022318)"><g><path d="M 1.671875 0 L 1.671875 -14.1875 L 10.5625 -14.1875 L 10.5625 -11.5 L 4.875 -11.5 L 4.875 -8.640625 L 9.703125 -8.640625 L 9.703125 -5.96875 L 4.875 -5.96875 L 4.875 -2.703125 L 10.78125 -2.703125 L 10.78125 0 Z M 1.671875 0 "/></g></g></g><g fill="#ffffff" fill-opacity="1"><g transform="translate(150.274054, 47.022318)"><g><path d="M 7.59375 0.265625 C 6.695312 0.265625 5.847656 0.109375 5.046875 -0.203125 C 4.253906 -0.515625 3.554688 -0.972656 2.953125 -1.578125 C 2.347656 -2.191406 1.867188 -2.953125 1.515625 -3.859375 C 1.171875 -4.765625 1 -5.816406 1 -7.015625 C 1 -8.179688 1.179688 -9.222656 1.546875 -10.140625 C 1.910156 -11.066406 2.394531 -11.847656 3 -12.484375 C 3.613281 -13.128906 4.328125 -13.617188 5.140625 -13.953125 C 5.953125 -14.285156 6.804688 -14.453125 7.703125 -14.453125 C 8.617188 -14.453125 9.4375 -14.265625 10.15625 -13.890625 C 10.882812 -13.523438 11.488281 -13.097656 11.96875 -12.609375 L 10.265625 -10.5625 C 9.910156 -10.894531 9.53125 -11.164062 9.125 -11.375 C 8.726562 -11.582031 8.273438 -11.6875 7.765625 -11.6875 C 7.285156 -11.6875 6.832031 -11.582031 6.40625 -11.375 C 5.976562 -11.164062 5.609375 -10.863281 5.296875 -10.46875 C 4.984375 -10.070312 4.734375 -9.59375 4.546875 -9.03125 C 4.367188 -8.46875 4.28125 -7.832031 4.28125 -7.125 C 4.28125 -5.65625 4.59375 -4.515625 5.21875 -3.703125 C 5.84375 -2.898438 6.679688 -2.5 7.734375 -2.5 C 8.304688 -2.5 8.820312 -2.625 9.28125 -2.875 C 9.738281 -3.132812 10.140625 -3.453125 10.484375 -3.828125 L 12.1875 -1.828125 C 11 -0.429688 9.46875 0.265625 7.59375 0.265625 Z M 7.59375 0.265625 "/></g></g></g><g fill="#ffffff" fill-opacity="1"><g transform="translate(162.935999, 47.022318)"><g><path d="M 4.4375 0 L 4.4375 -11.5 L 0.546875 -11.5 L 0.546875 -14.1875 L 11.5625 -14.1875 L 11.5625 -11.5 L 7.65625 -11.5 L 7.65625 0 Z M 4.4375 0 "/></g></g></g></svg>